<?xml version="1.0" encoding="utf-8"?>
<!-- Generator: Adobe Illustrator 23.0.4, SVG Export Plug-In . SVG Version: 6.00 Build 0)  -->
<svg version="1.1" id="Layer_1" xmlns="http://www.w3.org/2000/svg" xmlns:xlink="http://www.w3.org/1999/xlink" x="0px" y="0px"
	 viewBox="0 0 39.2 27" style="enable-background:new 0 0 39.2 27;" xml:space="preserve">
<style type="text/css">
	.st0{fill:#FFFFFF;}
</style>
<title>Asset 1</title>
<g>
	<g id="Layer_1-2">
		<path class="st0" d="M39.1,12.8c-0.1-1.1-0.4-2.2-0.7-3.2C37.5,7.1,36,4.8,34,3c-1.3-1.2-2.7-2.1-4.2-2.9c-0.1-0.1-0.3-0.1-0.5,0
			c-0.6,0.3-1.2,0.5-1.7,0.8c-1.1,0.5-2.3,1.2-3.3,1.9c-1.2,0.8-2.3,1.7-3.5,2.5c-0.3,0.2-0.6,0.5-1,0.7c-0.1,0.2-0.4,0.2-0.5,0
			c0,0,0,0,0,0c-0.4-0.3-0.8-0.7-1.2-1c-2.1-1.6-4.3-3.1-6.7-4.2c-0.5-0.2-1-0.5-1.5-0.7C9.7,0,9.5,0,9.3,0.1L9.1,0.2
			c-0.6,0.3-1.2,0.6-1.8,1c-1,0.7-2,1.5-2.8,2.4c-1.1,1.1-2,2.4-2.7,3.8C0.6,9.8,0,12.3,0,14.9c0,0.8,0,1.6,0.1,2.4
			c0.1,0.7,0.2,1.5,0.3,2.2c0.3,1.4,0.8,2.8,1.6,4.1c0.6,1.1,1.3,2.3,2,3.4h4.9l-0.3-0.9C8.1,24.4,7.5,22.7,7,21c-0.3-1-0.4-2-0.6-3
			c-0.1-0.6-0.2-1.2-0.2-1.8c0-0.3,0-0.7,0-1c0-0.6,0.1-1.2,0.2-1.8c0.1-0.6,0.2-1.3,0.3-1.9C7,10.6,7.6,9.7,8.3,9
			c0.9-0.8,1.9-1.3,3.1-1.4c0.9-0.1,1.8,0.1,2.4,0.7c0.5,0.4,0.9,0.9,1.2,1.6c0.4,0.8,0.7,1.7,0.9,2.6c0.3,1.2,0.4,2.5,0.4,3.7
			c0,0.9,0,1.8,0,2.7s0,1.9-0.1,2.8s-0.1,4.2-0.2,5.1c0,0.2,0,0.2,0.2,0.2H23c0.1,0,0.1,0,0.1-0.1c0,0,0-0.1,0-0.1
			C23,26.2,23,23.4,23,22.9c-0.1-1-0.1-1.9-0.1-2.9c0-1.2,0-2.4,0-3.6c0-1.2,0.2-2.3,0.4-3.5c0.1-0.8,0.4-1.6,0.7-2.4
			c0.3-0.8,0.7-1.4,1.3-2c0.6-0.6,1.4-1,2.3-1c0.5,0,0.9,0.1,1.4,0.2c1.1,0.3,2,1,2.7,1.9c0.6,0.9,1,1.9,1.2,3
			c0.1,0.8,0.2,1.7,0.2,2.5c0,0.3,0,0.7,0,1c0,0.8-0.1,1.6-0.3,2.3c-0.2,1.5-0.6,2.9-1.1,4.4c-0.4,1.4-0.9,2.8-1.4,4.2h5L37,24
			c0.8-1.4,1.4-2.9,1.7-4.5c0.2-1.2,0.4-2.4,0.5-3.6C39.2,14.9,39.2,13.9,39.1,12.8z"/>
	</g>
</g>
</svg>
