<svg id="Layer_1" data-name="Layer 1" xmlns="http://www.w3.org/2000/svg" viewBox="0 0 156.09 114.21"><defs><style>.cls-1{fill:#001959;}.cls-2{fill:#fff;}</style></defs><title>footerlogo</title><rect class="cls-1" x="7.25" y="5.86" width="141.73" height="101.22" rx="5.6"/><g id="Layer_1-2" data-name="Layer 1-2"><path class="cls-2" d="M138.78,54.5a50.41,50.41,0,0,0-2.33-10.07,49.6,49.6,0,0,0-13.63-20.89,59.87,59.87,0,0,0-13.15-9.22,1.56,1.56,0,0,0-1.51,0c-1.83.81-3.65,1.63-5.45,2.51A86.69,86.69,0,0,0,92.3,22.72c-3.75,2.55-7.34,5.28-11,8-1,.76-2,1.54-3,2.27a1.17,1.17,0,0,1-1.65.08L76.63,33c-1.26-1.1-2.62-2-3.91-3.15A119.07,119.07,0,0,0,51.58,16.46C50,15.7,48.43,15,46.89,14.28a1.59,1.59,0,0,0-1.73,0l-.79.6c-1.89,1.07-3.78,2-5.57,3.15a57.88,57.88,0,0,0-8.91,7.55,49.91,49.91,0,0,0-8.56,12,53.46,53.46,0,0,0-5.5,23.29,69.2,69.2,0,0,0,.4,7.62,63.47,63.47,0,0,0,.92,6.86,39.69,39.69,0,0,0,5,12.9c1.95,3.59,4.12,7.17,6.29,10.79H44l-1-2.77c-1.82-5.35-3.68-10.6-5.13-16.11A83.69,83.69,0,0,1,36,70.9c-.29-1.89-.47-3.78-.6-5.7a20.57,20.57,0,0,1,0-3.14c0-1.92.35-3.88.53-5.8A29.18,29.18,0,0,1,37,50.41a17,17,0,0,1,4.94-8,17.28,17.28,0,0,1,9.75-4.34,10.25,10.25,0,0,1,7.71,2.14,13.34,13.34,0,0,1,3.81,4.87A35.84,35.84,0,0,1,66,53.4a61.73,61.73,0,0,1,1.32,11.74v8.43c0,2.8-.16,5.83-.22,8.72s-.19,13.12-.63,16c0,.66,0,.66.63.66H88.21c.18,0,.28,0,.28-.29a.66.66,0,0,1,0-.28c-.28-1.67-.28-10.67-.28-12.33-.19-3.15-.38-6.11-.44-9.16V65.42a73.25,73.25,0,0,1,1.13-11A37.74,37.74,0,0,1,91,46.82a18.17,18.17,0,0,1,4.12-6.29,10.57,10.57,0,0,1,7.3-3.15,13.83,13.83,0,0,1,4.28.73A17,17,0,0,1,115.27,44,20.69,20.69,0,0,1,119,53.4c.4,2.61.53,5.23.75,7.87a23.65,23.65,0,0,1,0,3.15,73.64,73.64,0,0,1-.85,7.39,98.43,98.43,0,0,1-3.33,13.78c-1.39,4.44-2.93,8.82-4.47,13.19h15.73l5.41-9.16a44.32,44.32,0,0,0,5.48-14.06,82.82,82.82,0,0,0,1.42-11.43A56.4,56.4,0,0,0,138.78,54.5Z"/></g></svg>