<svg id="Layer_1" data-name="Layer 1" xmlns="http://www.w3.org/2000/svg" viewBox="0 0 77.93 77.93"><defs><style>.cls-1{fill:#73d7ff;}.cls-2{fill:#fff;}.cls-3{fill:#003575;}.cls-4{fill:none;stroke:#001959;stroke-miterlimit:10;stroke-width:2px;}</style></defs><title>getstarted</title><rect class="cls-1" x="18.31" y="46.41" width="5.12" height="13.67"/><polygon class="cls-1" points="59.48 17.99 18.27 17.99 18.27 36.62 45.08 36.62 54.52 44.24 54.52 36.62 59.48 36.62 59.48 17.99"/><polygon class="cls-2" points="31.85 59.08 23.25 59.08 23.25 48.52 28.93 47.12 32.08 41.59 32.65 33.31 35.52 31.9 37.27 33.12 37.58 38.31 39.21 44.49 46.18 44.49 47.15 46.65 45.65 54.84 43.3 59.84 31.85 59.08"/><path class="cls-3" d="M54.41,45.52a1,1,0,0,1-.61-.22l-8-6.69a.46.46,0,0,0-.3-.11H43.18a.94.94,0,1,1,0-1.88H46a.92.92,0,0,1,.61.22l6.12,5.1A.45.45,0,0,0,53,42a.48.48,0,0,0,.2,0,.47.47,0,0,0,.26-.42v-4a1,1,0,0,1,.95-.94h4.21a.47.47,0,0,0,.46-.46V19.31a.47.47,0,0,0-.46-.46H19.31a.47.47,0,0,0-.46.46V36.16a.47.47,0,0,0,.46.46h7a.94.94,0,1,1,0,1.88h-7A2.35,2.35,0,0,1,17,36.16V19.31A2.36,2.36,0,0,1,19.31,17H58.62A2.35,2.35,0,0,1,61,19.31V36.16a2.34,2.34,0,0,1-2.34,2.34H55.81a.47.47,0,0,0-.46.46v5.62a.94.94,0,0,1-.54.85A1,1,0,0,1,54.41,45.52Z"/><path class="cls-3" d="M24.93,25.87a.95.95,0,1,1,0-1.89H53a.95.95,0,0,1,0,1.89Z"/><path class="cls-3" d="M43.18,31.48a.94.94,0,1,1,0-1.88H53a.94.94,0,0,1,0,1.88Z"/><path class="cls-3" d="M24.93,31.48a.94.94,0,1,1,0-1.88h2.8a.94.94,0,1,1,0,1.88Z"/><path class="cls-3" d="M30.49,61a.94.94,0,1,1,0-1.88h11a4.17,4.17,0,0,0,1.74-.4.43.43,0,0,0,.22-.3,3.13,3.13,0,0,0,.08-.66.47.47,0,0,0-.12-.3,1.84,1.84,0,0,1-.17-.38,1.53,1.53,0,0,1,.37-1.7,2,2,0,0,1,.67-.37l.06,0a.71.71,0,0,0,.37-.76.5.5,0,0,0,0-.13,1.74,1.74,0,0,1-.29-1.53,2,2,0,0,1,.76-1q.95-.68,1.05-1.11a.42.42,0,0,0-.08-.39l-.11-.16,0-.06a1.37,1.37,0,0,1-.3-1.59,3.12,3.12,0,0,1,.46-.63l.13-.14a1.1,1.1,0,0,0,.25-.71.4.4,0,0,0,0-.24l-.45-.78a.46.46,0,0,0-.4-.23H38.43a1,1,0,0,1-.94-.86c0-.34-.69-8.25-.72-9.16a3.8,3.8,0,0,0-.29-1.43,2.88,2.88,0,0,0-.55-.82,1.24,1.24,0,0,0-.93-.36,1.59,1.59,0,0,0-.37,0c-.62.12-.91.28-1,.53a3.14,3.14,0,0,0-.07,1.33,6.92,6.92,0,0,1,0,1.29l0,.29c-.74,10.06-5.12,12.77-8.67,13.27a.45.45,0,0,0-.39.46V59a2,2,0,0,1-2,2H18.94a2,2,0,0,1-2-2V47a2,2,0,0,1,2-2h3.55a2,2,0,0,1,2,2v.19a.46.46,0,0,0,.17.36.43.43,0,0,0,.29.1H25c3.84-.79,6.13-4.75,6.63-11.45v0c0-.14,0-.24,0-.31a5.1,5.1,0,0,0,0-.94,4.46,4.46,0,0,1,.24-2.26,3,3,0,0,1,2.36-1.59A3.72,3.72,0,0,1,35,31a3.1,3.1,0,0,1,2.28.94,4.53,4.53,0,0,1,.93,1.38,5.82,5.82,0,0,1,.45,2.13c0,.67.47,6.11.6,7.76a.47.47,0,0,0,.46.43h6.63a.94.94,0,0,1,.81.46c1.12,1.88,1.13,2,1.15,2.21a3.17,3.17,0,0,1-.61,2.3.45.45,0,0,0,0,.51,3.18,3.18,0,0,1,.28.62c.31,1.07-.15,2.09-1.43,3.11a.45.45,0,0,0-.14.54,1.06,1.06,0,0,1,.1.26,2.61,2.61,0,0,1-1,2.82.47.47,0,0,0-.18.55,1.86,1.86,0,0,1,.1.39,3.87,3.87,0,0,1-.51,2.32A4.88,4.88,0,0,1,41.44,61Zm-11.18-14a.46.46,0,0,0-.46.46V58.62a.47.47,0,0,0,.46.46h2.81a.47.47,0,0,0,.46-.46V47.39a.46.46,0,0,0-.46-.46Z"/><circle class="cls-4" cx="38.96" cy="38.96" r="35"/></svg>