<svg id="Layer_1" data-name="Layer 1" xmlns="http://www.w3.org/2000/svg" viewBox="0 0 290 53"><defs><style>.cls-1{fill:#fff;}</style></defs><title>headerlogo</title><g id="Logos"><g id="MayaDataLogo-Purple"><g id="Group"><polygon id="Shape" class="cls-1" points="87.35 5.68 104.64 46.76 100.28 46.76 87.35 15.52 74.41 46.76 70.05 46.76 87.35 5.68"/><path class="cls-1" d="M114.76,27.41l-2.51-4,7.86-12.22h4.71Zm-.94,1.43V46.76h-4.24V28.84L95.27,5.68h4.88Z"/><polygon class="cls-1" points="136.99 5.68 154.37 46.76 149.99 46.76 137.15 15.52 124.16 46.76 119.78 46.76 136.99 5.68"/><polygon class="cls-1" points="123.03 5.68 120.5 10.01 125.89 10.01 128.43 5.68 123.03 5.68"/><path class="cls-1" d="M68.39,25.24A28.43,28.43,0,0,0,67.3,20.3a24,24,0,0,0-6.41-10.2,24.63,24.63,0,0,0-6.26-4.3.69.69,0,0,0-.78,0c-.94.48-1.72.8-2.5,1.28a39.85,39.85,0,0,0-5,2.86l-5.16,3.83c-.47.32-.94.8-1.41,1.12-.31.31-.47.31-.78,0l-1.88-1.44a51.48,51.48,0,0,0-10-6.53A14.18,14.18,0,0,1,24.93,5.8a.68.68,0,0,0-.78,0,.48.48,0,0,1-.31.16,24.88,24.88,0,0,0-2.66,1.59A23.57,23.57,0,0,0,17,11.22,29.14,29.14,0,0,0,12.89,17a28,28,0,0,0-2.5,15,25.56,25.56,0,0,0,.47,3.34A17.55,17.55,0,0,0,13.2,41.5a56.46,56.46,0,0,0,3.13,5.1h7.35a10.29,10.29,0,0,0-.47-1.27,72.09,72.09,0,0,1-2.35-7.65c-.31-1.44-.62-3-.93-4.47-.16-1-.16-1.75-.32-2.71a5.61,5.61,0,0,1,0-1.59A17.51,17.51,0,0,1,19.93,26l.47-2.87a8.64,8.64,0,0,1,2.34-3.82,8,8,0,0,1,4.69-2.07,4.82,4.82,0,0,1,3.6.95,5.32,5.32,0,0,1,1.72,2.39,17.5,17.5,0,0,1,1.25,4,23.78,23.78,0,0,1,.62,5.73v4.15a36.74,36.74,0,0,1-.15,4.14,59.84,59.84,0,0,1-.32,7.65c0,.32,0,.32.32.32h10c.16,0,.16,0,.16-.16v-.16c-.16-.8-.16-5.1-.16-5.9a42.65,42.65,0,0,1-.15-4.46V30.34a30,30,0,0,1,.46-5.25,14.13,14.13,0,0,1,.94-3.67,9.88,9.88,0,0,1,1.88-3A4.83,4.83,0,0,1,51,17a9,9,0,0,1,2,.32,8,8,0,0,1,4.06,2.86,9.12,9.12,0,0,1,1.72,4.63,30.75,30.75,0,0,1,.32,3.82v1.6a12.71,12.71,0,0,1-.47,3.5,50.58,50.58,0,0,1-1.57,6.69c-.62,2.08-1.4,4.31-2.18,6.38h7.34c.94-1.43,1.88-3,2.66-4.46a20.2,20.2,0,0,0,2.66-6.86,32.19,32.19,0,0,0,.62-5.57A9.38,9.38,0,0,0,68.39,25.24Z"/><path class="cls-1" d="M160.85,5.68h11.23a16.55,16.55,0,0,1,2.65.16,16.77,16.77,0,0,1,3,.32,20.05,20.05,0,0,1,6.08,2.23,17.89,17.89,0,0,1,5,4.15,19.64,19.64,0,0,1,3.28,5.9,21.93,21.93,0,0,1,1.25,7.34,20.08,20.08,0,0,1-4.21,12.76,15.31,15.31,0,0,1-4.68,4.31,18.8,18.8,0,0,1-5.77,2.55,8.88,8.88,0,0,1-3,.48c-1.09,0-2.19.16-3.43.16H161V5.68Zm11.07,37a19.31,19.31,0,0,0,3.12-.16,7.1,7.1,0,0,0,2.65-.48A13.38,13.38,0,0,0,182.22,40a15.32,15.32,0,0,0,3.58-3.51,20.94,20.94,0,0,0,2.34-4.63,16.75,16.75,0,0,0,.78-5.58A18.78,18.78,0,0,0,188,20.2a17.31,17.31,0,0,0-2.49-4.79,15.91,15.91,0,0,0-3.74-3.51,16.77,16.77,0,0,0-4.84-2.07,12.07,12.07,0,0,0-2.65-.32c-.93,0-1.87-.16-2.65-.16h-6.86V42.69Z"/><polygon class="cls-1" points="210.3 4.24 227.88 46.04 223.37 46.04 210.3 14.3 197.08 46.04 192.56 46.04 210.3 4.24"/><polygon class="cls-1" points="234.86 9.34 224.27 9.34 224.27 5.68 249.5 5.68 249.5 9.34 239.07 9.34 239.07 46.04 235.02 46.04 235.02 9.34 234.86 9.34"/><polygon class="cls-1" points="262.19 4.24 279.77 46.04 275.25 46.04 262.19 14.3 248.96 46.04 244.45 46.04 262.19 4.24"/></g></g></g></svg>