<svg id="Layer_1" data-name="Layer 1" xmlns="http://www.w3.org/2000/svg" viewBox="0 0 77.93 77.93"><defs><style>.cls-1{fill:#fff;}.cls-2{fill:#73d7ff;}.cls-3{fill:#003575;}.cls-4{fill:none;stroke:#001959;stroke-miterlimit:10;stroke-width:2px;}</style></defs><title>support</title><path class="cls-1" d="M59.08,39A20.12,20.12,0,1,0,38.49,59.05l.07.68,7.54,0,4.63-2.17-.45-1.93A20.08,20.08,0,0,0,59.08,39Z"/><path class="cls-2" d="M36.05,25.39l2.16,6.86-3,2.22,1.87,6.41,3.75,3.91s2.66-.54,2.75-.6l.93-.5,2.11.44,3.21,3.66-.61,3.46-7.7,2.4L31.94,43,28,30.41l5.22-5.28Z"/><path class="cls-3" d="M49.93,19.92l-.12-.1-.1-.05-.2-.1-.18-.1c-.55-.29-1.09-.56-1.63-.79l-.13-.05-.13-.06A17.7,17.7,0,0,0,45.72,18l-.52-.16L45,17.83,44,17.56l-.13,0c-.25-.06-.49-.12-.73-.16-.53-.1-1.07-.19-1.61-.25l-.62-.06H40.7c-.45,0-.92-.06-1.38-.07h-.71L38,17l-.36,0-.31,0-.76.05-.22,0-.21,0A22,22,0,0,0,17.67,33.52l0,.1c0,.11-.06.21-.08.32-.1.42-.19.86-.27,1.35s-.11.66-.15,1-.07.64-.1,1l0,.29c0,.11,0,.22,0,.33a2.43,2.43,0,0,0,0,.27v.27c0,.09,0,.18,0,.26A2.29,2.29,0,0,0,17,39c0,.1,0,.2,0,.3s0,.19,0,.28c0,.44,0,.83.06,1.2s.06.62.11,1,.12.88.19,1.29.11.53.17.8c.11.5.23,1,.36,1.41.06.2.13.4.19.6.18.53.36,1,.55,1.5.05.12.11.24.16.37l0,.09c.24.55.48,1,.73,1.5l.15.28.08.13c.29.53.58,1,.86,1.42l.19.27.11.16c.35.51.66.91.95,1.28l.25.29.15.17.25.3c.17.2.33.39.51.57a.8.8,0,0,0,.13.13l.16.15.21.2.17.16c.36.34.79.75,1.24,1.13l.1.07A21.68,21.68,0,0,0,39,61c3.73,0,9.37,0,12-3.22a3.25,3.25,0,0,0-.07-4l-1.27-1.28a.45.45,0,0,1-.14-.33.45.45,0,0,1,.15-.33A6.5,6.5,0,0,0,51,50.05a.81.81,0,0,0,.12-.37,5.36,5.36,0,0,0,0-1,7.28,7.28,0,0,0-2-4.19,8,8,0,0,0-3-2.08,3.28,3.28,0,0,0-1.06-.2,2.08,2.08,0,0,0-.93.21,5.52,5.52,0,0,0-.78.48l-1.24.83a.5.5,0,0,1-.26.08.55.55,0,0,1-.24-.07c-.46-.28-1.49-1.15-3.2-3.83s-2.06-4.1-2.11-4.66a.44.44,0,0,1,.2-.42L37.77,34a6.92,6.92,0,0,0,.74-.53,2.68,2.68,0,0,0,.8-1.82A8.35,8.35,0,0,0,38.7,28a7.27,7.27,0,0,0-2.94-3.57,6,6,0,0,0-.83-.4A.92.92,0,0,0,34.6,24h-.09c-4.94.48-7.55,7.34-7.66,7.63a1,1,0,0,0,0,.53,44.86,44.86,0,0,0,5.05,12.11s0,0,0,0l0,.07h0l0,0,.18.29,0,0,0,0a43.91,43.91,0,0,0,8.73,9.7,1,1,0,0,0,.58.19h0a16.1,16.1,0,0,0,5.82-1.36.45.45,0,0,1,.2,0,.44.44,0,0,1,.32.13L49.44,55l.07.09a1.44,1.44,0,0,1,0,1.49c-2,2.53-7.13,2.53-10.5,2.53a20.15,20.15,0,0,1-12.69-4.53l0,0-.07-.06c-.37-.3-.72-.63-1.12-1l-.14-.13-.23-.22c-.34-.35-.65-.7-.94-1l-.12-.14-.25-.3c-.28-.34-.55-.7-.87-1.16l-.08-.12-.2-.28c-.26-.4-.52-.82-.79-1.3l-.06-.1-.15-.27c-.23-.43-.44-.88-.66-1.38l0-.06c-.05-.12-.11-.24-.15-.36-.18-.42-.34-.87-.51-1.37-.06-.18-.12-.36-.17-.55-.12-.39-.23-.81-.33-1.29-.06-.24-.11-.49-.15-.73s-.13-.74-.19-1.18-.07-.63-.09-.9,0-.68-.05-1.08,0-.7,0-1,0-.69.06-1.06.05-.63.09-1,.08-.58.14-.88.14-.81.24-1.22l.06-.25,0-.15A20.48,20.48,0,0,1,36.38,19l.15,0,.23,0c.24,0,.48,0,.71-.05l.29,0,.26,0c.27,0,.55,0,.83,0h.32c.62,0,1.19,0,1.73.09h.17c.62.07,1.25.16,1.87.29l.13,0,.08,0c.54.11,1.09.25,1.63.41l.09,0,.15.05q.91.29,1.74.63l.1,0c.52.22,1.06.48,1.59.76l.16.09A20.13,20.13,0,0,1,57.41,47c-.2.45-.42.9-.65,1.34a1,1,0,0,0-.07.72.9.9,0,0,0,.46.55.85.85,0,0,0,.44.11,1,1,0,0,0,.84-.5c.25-.47.49-1,.7-1.47A21.75,21.75,0,0,0,61,39,22.07,22.07,0,0,0,49.93,19.92Zm-.76,29.54C47.49,52,43.57,52.6,42,52.74h0a.48.48,0,0,1-.29-.1,43.21,43.21,0,0,1-7.94-9l-.05-.07a.24.24,0,0,1-.06-.09l0-.05,0-.06a43.51,43.51,0,0,1-4.78-11.21.57.57,0,0,1,0-.29c.23-.54,2.32-5.29,5.54-6h.09a.43.43,0,0,1,.22.06l.19.11a5.26,5.26,0,0,1,2.13,2.61,6.42,6.42,0,0,1,.49,2.82v.17a.57.57,0,0,1-.23.47c-.11.09-.23.16-.35.24l-.1.06-1.58,1a1.6,1.6,0,0,0-.66.91c-.4,1.3.35,3.44,2.3,6.56s3.59,4.69,4.92,4.85l.22,0a1.55,1.55,0,0,0,.92-.29l1.55-1,.35-.25a.48.48,0,0,1,.29-.11h.06a1.14,1.14,0,0,1,.37.09h0a6,6,0,0,1,2.28,1.6,5.42,5.42,0,0,1,1.45,3.06l0,.27A.51.51,0,0,1,49.17,49.46Z"/><circle class="cls-4" cx="38.96" cy="38.96" r="35"/></svg>