<svg id="Layer_1" data-name="Layer 1" xmlns="http://www.w3.org/2000/svg" viewBox="0 0 77.93 77.93"><defs><style>.cls-1{fill:#73d7ff;}.cls-2{fill:#fff;}.cls-3{fill:#003575;}.cls-4{fill:none;stroke:#001959;stroke-miterlimit:10;stroke-width:2px;}</style></defs><title>usecases</title><rect class="cls-1" x="17.98" y="23.61" width="30.33" height="35.87"/><path class="cls-2" d="M36.81,20.8a3.7,3.7,0,0,0-7,0H23.71v5.78H43V20.8Z"/><rect class="cls-2" x="54.65" y="27.86" width="5.42" height="23.74"/><path class="cls-3" d="M47.39,22.58H44.58a.46.46,0,0,1-.46-.46V20.71a.94.94,0,0,0-.94-.94h-5a.45.45,0,0,1-.39-.23,5.13,5.13,0,0,0-8.9,0,.46.46,0,0,1-.4.23h-5a.94.94,0,0,0-.94.94v1.41a.47.47,0,0,1-.46.46H19.31A2.35,2.35,0,0,0,17,24.93V58.62A2.35,2.35,0,0,0,19.31,61H47.39a2.34,2.34,0,0,0,2.34-2.34V24.93A2.35,2.35,0,0,0,47.39,22.58Zm-22.92-.46a.45.45,0,0,1,.46-.46H29.4a.93.93,0,0,0,.88-.63,3.24,3.24,0,0,1,6.13,0,1,1,0,0,0,.89.63h4.47a.45.45,0,0,1,.46.46v2.81a.46.46,0,0,1-.46.46H24.93a.46.46,0,0,1-.46-.46Zm23.38,36.5a.47.47,0,0,1-.46.46H19.31a.47.47,0,0,1-.46-.46V24.93a.46.46,0,0,1,.46-.46h2.81a.46.46,0,0,1,.46.46v1.4a.94.94,0,0,0,.94.94H43.18a.94.94,0,0,0,.94-.94v-1.4a.45.45,0,0,1,.46-.46h2.81a.46.46,0,0,1,.46.46Z"/><path class="cls-3" d="M43.18,33.81h-7a.95.95,0,1,0,0,1.89h7a.95.95,0,0,0,0-1.89Z"/><path class="cls-3" d="M43.18,42.23h-7a.95.95,0,1,0,0,1.89h7a.95.95,0,0,0,0-1.89Z"/><path class="cls-3" d="M43.18,50.65h-7a.95.95,0,1,0,0,1.89h7a.95.95,0,0,0,0-1.89Z"/><path class="cls-3" d="M60,26.79a.47.47,0,0,1-.46-.46V23.52a.94.94,0,0,0-.94-.94H55.81a.94.94,0,0,0-.94.94v2.81a.47.47,0,0,1-.46.46,1,1,0,0,0-.95.94V51.6a1,1,0,0,0,.95.94.47.47,0,0,1,.46.46v2.81a.94.94,0,0,0,.94.94.47.47,0,0,1,.46.46V60a.95.95,0,0,0,1.89,0V57.21a.46.46,0,0,1,.46-.46.94.94,0,0,0,.94-.94V53a.47.47,0,0,1,.46-.46A.94.94,0,0,0,61,51.6V27.73A.94.94,0,0,0,60,26.79Zm-.94,23.4a.46.46,0,0,1-.46.46H55.81a.46.46,0,0,1-.46-.46v-21a.46.46,0,0,1,.46-.46h2.81a.46.46,0,0,1,.46.46Z"/><path class="cls-3" d="M30.54,31a.93.93,0,0,0-.75.38L26.55,35.7a.46.46,0,0,1-.34.18h0a.46.46,0,0,1-.33-.13l-1.66-1.66a1,1,0,0,0-.67-.28.91.91,0,0,0-.66.28.94.94,0,0,0,0,1.33l2.77,2.77.09.07.07.07h0l.09,0,.07,0,0,0a.89.89,0,0,0,.31.06h0a.94.94,0,0,0,.36-.08l0,0,.09-.07a.31.31,0,0,1,.1,0l.06,0a.35.35,0,0,1,.05-.08l.09-.08,4.18-5.57a1,1,0,0,0,.18-.7,1,1,0,0,0-.37-.62A1,1,0,0,0,30.54,31Z"/><path class="cls-3" d="M30.54,39.43a.92.92,0,0,0-.75.37l-3.24,4.32a.47.47,0,0,1-.34.19h0a.47.47,0,0,1-.33-.14l-1.66-1.66a1,1,0,0,0-.67-.28.91.91,0,0,0-.66.28.94.94,0,0,0,0,1.33l2.77,2.78a.24.24,0,0,1,.09.06l.07.07h0l.09.05.07,0h0a1.25,1.25,0,0,0,.31.07h0a1.19,1.19,0,0,0,.36-.09l0,0,.09-.06.1-.06.06,0,.05-.08.09-.08,4.18-5.57a1,1,0,0,0,.18-.7,1,1,0,0,0-.37-.62A1,1,0,0,0,30.54,39.43Z"/><path class="cls-3" d="M30.54,47.85a.93.93,0,0,0-.75.38l-3.24,4.32a.5.5,0,0,1-.34.18h0a.47.47,0,0,1-.33-.14l-1.66-1.66a1,1,0,0,0-.67-.28.91.91,0,0,0-.66.28.94.94,0,0,0,0,1.33L25.63,55a.28.28,0,0,1,.09.07l.07.06,0,0,.09,0,.07,0h0a.73.73,0,0,0,.31.07h0a.8.8,0,0,0,.36-.09l0,0,.09-.06.1-.06.06,0A.22.22,0,0,1,27,55a.38.38,0,0,1,.09-.09l4.18-5.56a1,1,0,0,0,.18-.7,1,1,0,0,0-.37-.62A.91.91,0,0,0,30.54,47.85Z"/><path class="cls-3" d="M33.35,22.62a.94.94,0,1,0-.94-.94A.94.94,0,0,0,33.35,22.62Z"/><circle class="cls-4" cx="38.96" cy="38.96" r="35"/></svg>