<?xml version="1.0" encoding="utf-8"?>
<!-- Generator: Adobe Illustrator 23.0.4, SVG Export Plug-In . SVG Version: 6.00 Build 0)  -->
<svg version="1.1" id="Layer_1" xmlns="http://www.w3.org/2000/svg" xmlns:xlink="http://www.w3.org/1999/xlink" x="0px" y="0px"
	 viewBox="0 0 113.6430664 43.2238274" style="enable-background:new 0 0 113.6430664 43.2238274;" xml:space="preserve">
<style type="text/css">
	.st0{fill:#001959;}
	.st1{fill:#0063FF;}
	.st2{fill:#626372;}
	.st3{fill:#FFFFFF;}
	.st4{fill:#1BE0E6;}
	.st5{fill:#4D4E5A;}
	.st6{fill:#D1D2D9;}
	.st7{enable-background:new    ;}
	.st8{fill:#D1D2D9;stroke:#000000;stroke-width:0.5;stroke-miterlimit:10;}
	.st9{fill:none;stroke:#FFFFFF;stroke-miterlimit:10;}
	.st10{fill:none;stroke:#000000;stroke-miterlimit:10;}
	.st11{fill:#FFFFFF;stroke:#000000;stroke-miterlimit:10;}
</style>
<g>
	<g>
		<path class="st1" d="M60.3820801,29.9787083c-0.3105469,0-0.578125,0.1132812-0.7944336,0.3364258
			c-0.2163086,0.222168-0.3256836,0.4882812-0.3256836,0.7915039c0,0.2910156,0.109375,0.5517578,0.3256836,0.7744141
			c0.2177734,0.224123,0.4848633,0.3374043,0.7944336,0.3374043c0.3085938,0,0.5751953-0.1103516,0.7924805-0.3276386
			c0.2172852-0.2177734,0.3271484-0.484375,0.3271484-0.7924805c0-0.3085938-0.1098633-0.5756836-0.3271484-0.793457
			C60.958252,30.0885715,60.6916504,29.9787083,60.3820801,29.9787083z"/>
		<path class="st1" d="M40.6081543,30.8468723c-1.0297852-0.5761719-2.1577148-0.8681641-3.3525391-0.8681641
			c-1.1943359,0-2.3139648,0.2949219-3.3286133,0.8774414c-1.0136719,0.5825195-1.8242188,1.3984394-2.4082031,2.4257832
			c-0.5825195,1.0249023-0.8774414,2.1586914-0.8774414,3.3701172c0,1.1787109,0.2983398,2.2900391,0.887207,3.3027344
			c0.5883789,1.0151367,1.4072266,1.8222656,2.434082,2.3994141c1.0258789,0.5771484,2.1508789,0.8696289,3.3442383,0.8696289
			c1.1938477,0,2.3164062-0.2954102,3.3359375-0.878418c1.0205078-0.5830078,1.8339844-1.3959961,2.4174805-2.4165039
			c0.5825195-1.0205078,0.8779297-2.1430664,0.8779297-3.3369141c0-1.1928711-0.2983398-2.3154297-0.887207-3.3374023
			C42.4616699,32.233593,41.6394043,31.4235325,40.6081543,30.8468723z M42.3508301,36.6002922
			c0,1.4741211-0.496582,2.7089844-1.4750977,3.6704102c-0.9785156,0.9624023-2.1821289,1.4506836-3.5776367,1.4506836
			c-1.3945312,0-2.6010742-0.4995117-3.5854492-1.484375c-0.984375-0.9838867-1.4838867-2.2045898-1.4838867-3.6279297
			c0-1.4228516,0.4853516-2.6469727,1.4428711-3.6381836c0.9560547-0.989748,2.1650391-1.4912128,3.5922852-1.4912128
			c1.3950195,0,2.6044922,0.4995117,3.5942383,1.4843769C41.8483887,33.9499016,42.3508301,35.1735344,42.3508301,36.6002922z"/>
		<path class="st1" d="M52.5944824,33.8415031c-0.5717773-0.3876953-1.2241211-0.5839844-1.9384766-0.5839844
			c-1.2558594,0-2.3530273,0.5361328-3.2670898,1.5957031v-1.355957h-1.484375v9.4174805h1.484375v-3.4985352
			c0-1.2285156,0.0507812-2.0532227,0.1503906-2.4521484c0.0981445-0.3916016,0.2915039-0.777832,0.574707-1.1479492
			c0.28125-0.3686523,0.628418-0.6606445,1.0307617-0.8681641c0.8056641-0.4121094,1.71875-0.371582,2.2915039-0.1157227
			c0.2841797,0.1264648,0.5214844,0.3129883,0.7055664,0.5546875c0.1875,0.2470703,0.3291016,0.5522461,0.4208984,0.9072266
			c0.0932617,0.3632812,0.1411133,1.0791016,0.1411133,2.1269531v4.4936523h1.4672852V38.077343
			c0-1.1811523-0.1186523-2.0917969-0.3535156-2.7060547C53.5793457,34.7438469,53.1677246,34.2291985,52.5944824,33.8415031z"/>
		<rect x="56.2058105" y="29.9787083" class="st1" width="1.4672852" height="12.9360352"/>
		<rect x="59.6394043" y="33.4972649" class="st1" width="1.4848633" height="9.4174805"/>
		<path class="st1" d="M69.9353027,33.8415031c-0.5717773-0.3876953-1.2241211-0.5839844-1.9384766-0.5839844
			c-1.2558594,0-2.3530273,0.5361328-3.2670898,1.5957031v-1.355957h-1.484375v9.4174805h1.484375v-3.4985352
			c0-1.2285156,0.0507812-2.0532227,0.1503906-2.4521484c0.0981445-0.3916016,0.2915039-0.777832,0.574707-1.1479492
			c0.28125-0.3686523,0.628418-0.6606445,1.0307617-0.8681641c0.8056641-0.4121094,1.7192383-0.371582,2.2915039-0.1157227
			c0.2841797,0.1264648,0.5214844,0.3129883,0.7055664,0.5541992c0.1879883,0.2480469,0.3295898,0.5537109,0.4204102,0.9072266
			c0.09375,0.3657227,0.1416016,1.081543,0.1416016,2.1274414v4.4936523h1.4672852V38.077343
			c0-1.1811523-0.1186523-2.0917969-0.3535156-2.7060547C70.920166,34.7438469,70.5085449,34.2291985,69.9353027,33.8415031z"/>
		<path class="st1" d="M81.4099121,39.7414055c-0.7451172,1.4135742-1.8359375,2.1010742-3.3349609,2.1010742
			c-0.8925781,0-1.6621094-0.3232422-2.2880859-0.9599609c-0.5966797-0.6069336-0.9291992-1.4130859-0.9887695-2.3979492h8.2036133
			l-0.003418-0.1533203c-0.0351562-1.5541992-0.5214844-2.8022461-1.4443359-3.7084961
			c-0.9233398-0.9057617-2.0795898-1.3647461-3.4365234-1.3647461c-1.3598633,0-2.5170898,0.4951172-3.4394531,1.4716797
			c-0.921875,0.9736328-1.3891602,2.1577148-1.3891602,3.519043s0.4643555,2.5429688,1.3808594,3.5112305
			c0.9174805,0.9711914,2.0981445,1.4638672,3.5083008,1.4638672c0.8266602,0,1.5893555-0.1728516,2.2675781-0.5141602
			c1.5629883-0.7866211,2.2285156-2.253418,2.4418945-2.8476562l0.0722656-0.2006836h-1.5073242L81.4099121,39.7414055z
			 M74.9626465,37.1715813c0.5297852-1.6689453,1.5664062-2.480957,3.1640625-2.480957
			c0.796875,0,1.5112305,0.237793,2.1230469,0.7070312c0.5639648,0.4331055,0.9365234,1.0292969,1.1088867,1.7739258H74.9626465z"/>
	</g>
	<g>
		<path class="st0" d="M15.7514648,3.4794922l-0.0004883-0.0004883c-1.0898438-1.0161133-2.4003906-1.7705078-3.8959961-2.2412109
			c-1.4916992-0.4692383-3.7436523-0.6977539-6.8847656-0.6977539H0v22.5400391h7.3701172
			c2.8735352,0,5.121582-0.4453125,6.6806641-1.3242188c1.5688477-0.8852539,2.8261719-2.2104492,3.7368164-3.9375
			c0.9038086-1.7148438,1.3623047-3.5698242,1.3623047-5.5136719c0-1.9243164-0.2944336-3.6367188-0.8754883-5.0908203
			C17.6899414,5.7529297,16.8408203,4.496582,15.7514648,3.4794922z M15.9902344,12.0195312
			c0,1.3461914-0.2192383,2.5532227-0.6513672,3.5874023c-0.4282227,1.0239258-1.0600586,1.90625-1.8779297,2.6210938
			c-0.8134766,0.7124023-1.7739258,1.1943359-2.8544922,1.4335938c-1.1279297,0.2509766-2.9936523,0.378418-5.5463867,0.378418
			H3.0703125V3.6396484h1.0297852c2.5356445,0,4.4755859,0.1328125,5.7661133,0.3955078
			c1.2446289,0.2519531,2.3393555,0.7490234,3.2524414,1.4760742c0.9116211,0.7250977,1.6245117,1.6606445,2.1191406,2.7802734
			C15.7373047,9.4238281,15.9902344,10.6777344,15.9902344,12.0195312z"/>
		<path class="st0" d="M21.6655273,0.6621094c-0.421875,0.4355469-0.6357422,0.956543-0.6357422,1.5478516
			c0,0.5727539,0.2143555,1.0834961,0.6362305,1.5180664c0.4262695,0.4389648,0.9511719,0.6616211,1.559082,0.6616211
			c0.6049805,0,1.1274414-0.2158203,1.5532227-0.6416016s0.6416016-0.9482422,0.6416016-1.5527344
			c0-0.6054688-0.2158203-1.1279297-0.6416016-1.5537109C23.9243164-0.2124023,22.5166016-0.2148438,21.6655273,0.6621094z"/>
		<rect x="21.6899414" y="6.1494141" class="st0" width="3.0698242" height="16.9306641"/>
		<path class="st0" d="M31.125,6.5048828l-0.0004883,0.0004883c-0.2685547,0.2231445-0.5410156,0.5053711-0.8149414,0.84375
			v-1.199707h-3.1000977v16.9306641h3.1000977v-5.9003906c0-2.6064453,0.1259766-4.4165039,0.3745117-5.3803711
			c0.2387695-0.9301758,0.6118164-1.6948242,1.1098633-2.2734375C32.46875,8.7397461,33.1625977,8.53125,33.8427734,8.9389648
			l0.4223633,0.2524414l1.6186523-2.6079102l-0.4648438-0.2529297C33.9179688,5.5126953,32.3359375,5.4990234,31.125,6.5048828z"/>
		<path class="st0" d="M53.7099609,14.8286133c-0.0629883-2.7822266-0.9360352-5.0180664-2.5952148-6.6455078
			c-1.6601562-1.6279297-3.7358398-2.4536133-6.1699219-2.4536133c-2.4418945,0-4.5224609,0.890625-6.1835938,2.6464844
			c-1.6533203,1.7480469-2.4916992,3.8720703-2.4916992,6.3134766c0,2.4418945,0.8334961,4.5610352,2.4770508,6.2983398
			c1.6508789,1.746582,3.7714844,2.6323242,6.3032227,2.6323242c3.5419922,0,6.2539062-1.7036133,8.0605469-5.0629883
			l0.2407227-0.4472656L50.71875,16.7480469l-0.2314453,0.4384766c-1.2578125,2.3842773-3.0952148,3.5429688-5.6176758,3.5429688
			c-1.5141602,0-2.7666016-0.5249023-3.8286133-1.6054688c-0.949707-0.9663086-1.5004883-2.237793-1.640625-3.7841797h14.3208008
			L53.7099609,14.8286133z M39.7626953,12.5703125c0.9194336-2.5961914,2.625-3.8603516,5.1972656-3.8603516
			c1.3393555,0,2.5390625,0.3994141,3.5649414,1.1865234c0.8789062,0.675293,1.4638672,1.5537109,1.7768555,2.6738281H39.7626953z"
			/>
		<path class="st0" d="M70.5800781,18.1254883c-1.4125977,1.7524414-3.1694336,2.6040039-5.3706055,2.6040039
			c-1.8383789,0-3.3115234-0.5888672-4.5039062-1.7998047c-1.1953125-1.2143555-1.7763672-2.6303711-1.7763672-4.3300781
			c0-1.6918945,0.5869141-3.0698242,1.7939453-4.2119141c1.2148438-1.1494141,2.6826172-1.7080078,4.4863281-1.7080078
			c2.2944336,0,4.0478516,0.8476562,5.3603516,2.5908203l0.2763672,0.3671875l2.4248047-1.5258789l-0.253418-0.4199219
			c-0.7460938-1.2363281-1.8291016-2.2182617-3.2182617-2.918457c-1.3745117-0.6928711-2.8886719-1.0439453-4.5-1.0439453
			c-2.7446289,0-5.0288086,0.8925781-6.7885742,2.6523438C56.7514648,10.1411133,55.859375,12.2836914,55.859375,14.75
			c0,2.4692383,0.8833008,4.5874023,2.625,6.2963867c1.7392578,1.7075195,3.9311523,2.5737305,6.5146484,2.5737305
			c1.6245117,0,3.1635742-0.3286133,4.5737305-0.9760742c1.4257812-0.6538086,2.5791016-1.609375,3.4282227-2.8408203
			l0.2885742-0.4179688l-2.4228516-1.6152344L70.5800781,18.1254883z"/>
		<path class="st0" d="M80.7988281,0h-3.0698242v6.1494141h-2.8203125v2.7402344h2.8203125v11.5
			c0,1.0693359,0.2583008,1.8823242,0.7680664,2.4155273c0.515625,0.5405273,1.3037109,0.8149414,2.3417969,0.8149414
			c0.5102539,0,1.1850586-0.0708008,2.0620117-0.2167969l0.4179688-0.0693359v-2.6640625h-1.7299805
			c-0.4375,0-0.6494141-0.0297852-0.7446289-0.0512695c-0.019043-0.078125-0.0454102-0.2431641-0.0454102-0.559082V8.8896484
			h3.2402344V6.1494141h-3.2402344V0z"/>
		<path class="st0" d="M94.144043,5.7294922c-2.4399414,0-4.5390625,0.8891602-6.2392578,2.6420898
			c-1.6962891,1.7490234-2.5561523,3.8847656-2.5561523,6.3481445c0,2.4243164,0.8549805,4.5351562,2.5415039,6.2729492
			c1.6899414,1.7431641,3.7988281,2.6274414,6.2685547,2.6274414c2.4702148,0,4.574707-0.8842773,6.2548828-2.628418
			c1.6757812-1.7382812,2.5253906-3.8583984,2.5253906-6.3022461c0-2.4423828-0.8598633-4.5683594-2.5561523-6.3178711
			C98.6821289,6.6186523,96.5830078,5.7294922,94.144043,5.7294922z M99.8686523,14.75
			c0,1.6606445-0.5478516,3.0332031-1.6743164,4.1972656c-1.1220703,1.1591797-2.4570312,1.7226562-4.0805664,1.7226562
			c-1.6220703,0-2.940918-0.5576172-4.0327148-1.7050781c-1.0986328-1.1533203-1.6323242-2.5219727-1.6323242-4.1845703
			c0-1.6630859,0.5537109-3.0571289,1.6933594-4.2617188c1.1313477-1.1967773,2.4404297-1.7783203,4.0019531-1.7783203
			c1.5620117,0,2.8764648,0.5820312,4.0180664,1.7797852C99.3105469,11.7241211,99.8686523,13.1079102,99.8686523,14.75z"/>
		<path class="st0" d="M113.1782227,6.3305664c-1.5009766-0.8178711-3.0825195-0.8320312-4.2944336,0.1748047
			c-0.2685547,0.2231445-0.5410156,0.5053711-0.8149414,0.84375v-1.199707H104.96875v16.9306641h3.1000977v-5.9003906
			c0-2.6064453,0.1259766-4.4165039,0.3745117-5.3803711c0.2387695-0.9301758,0.6118164-1.6948242,1.1098633-2.2734375
			c0.6748047-0.7861328,1.3686523-0.9946289,2.0488281-0.5869141l0.4223633,0.2524414l1.6186523-2.6079102L113.1782227,6.3305664z"
			/>
	</g>
</g>
</svg>
