<?xml version="1.0" encoding="utf-8"?>
<!-- Generator: Adobe Illustrator 23.0.6, SVG Export Plug-In . SVG Version: 6.00 Build 0)  -->
<svg version="1.1" id="Layer_1" xmlns="http://www.w3.org/2000/svg" xmlns:xlink="http://www.w3.org/1999/xlink" x="0px" y="0px"
	 viewBox="0 0 407.4 236.3" style="enable-background:new 0 0 407.4 236.3;" xml:space="preserve">
<style type="text/css">
	.st0{fill:none;stroke:#AFAFAF;stroke-width:0.5;stroke-miterlimit:10;stroke-dasharray:6.04,6.04;}
	.st1{fill:#F16E22;}
	.st2{fill:#FFFFFF;}
	.st3{font-family:'Helvetica-Bold';}
	.st4{font-size:10.29px;}
	.st5{fill:#272B5C;}
	.st6{fill:#0163FF;}
	.st7{fill:none;stroke:#1C2456;stroke-width:0.25;}
	.st8{fill:#663399;}
	.st9{fill:#262B3E;}
	.st10{fill:#1D2356;}
	.st11{enable-background:new    ;}
</style>
<title>moep</title>
<path class="st0" d="M155.1,21.2h225.1c2.1,0,3.7,2.9,3.7,6.5v181c0,3.6-1.7,6.4-3.7,6.4H155.1c-2.1,0-3.7-2.9-3.7-6.4v-181
	C151.4,24.1,153.1,21.2,155.1,21.2z"/>
<rect x="166.5" y="95.4" class="st1" width="97.5" height="108.7"/>
<g>
	<text transform="matrix(1 0 0 1 187.48 145.54)" class="st2 st3 st4">OpenEBS</text>
	<text transform="matrix(1 0 0 1 170.9 157.88)" class="st2 st3 st4">Enterprise Edition</text>
</g>
<rect x="167.3" y="35.3" class="st5" width="207.1" height="44.8"/>
<g>
	<text transform="matrix(1 0 0 1 247.81 53.53)" class="st2 st3 st4">Director</text>
	<text transform="matrix(1 0 0 1 232.37 65.87)" class="st2 st3 st4">Online/Onprem</text>
</g>
<rect x="277.5" y="95.1" class="st6" width="97.5" height="108.7"/>
<g>
	<text transform="matrix(1 0 0 1 307.35 145.8)" class="st2 st3 st4">Litmus</text>
	<text transform="matrix(1 0 0 1 281.91 158.15)" class="st2 st3 st4">Enterprise Edition</text>
</g>
<path class="st7" d="M14.6,6.9h376.6c4.6,0,8.3,3.4,8.3,7.6v206.6c0,4.2-3.7,7.6-8.3,7.6H14.6c-4.6,0-8.3-3.4-8.3-7.6V14.5
	C6.2,10.3,10,6.9,14.6,6.9z"/>
<g>
	<g id="Logos">
		<g id="MayaDataLogo-Purple">
			<g id="Group">
				<polygon id="Shape" class="st8" points="55,84.8 62.3,102.1 60.5,102.1 55,89 49.6,102.1 47.8,102.1 				"/>
				<path class="st8" d="M66.6,94l-1-1.7l3.3-5.1h2L66.6,94z M66.2,94.6v7.5h-1.8v-7.5l-6-9.7h2L66.2,94.6z"/>
				<polygon class="st8" points="75.9,84.8 83.3,102.1 81.4,102.1 76,89 70.5,102.1 68.7,102.1 				"/>
				<polygon class="st8" points="70.1,84.8 69,86.7 71.3,86.7 72.3,84.8 				"/>
				<path class="st8" d="M47.1,93.1c-0.1-0.7-0.2-1.4-0.5-2.1c-0.9-2.7-2.8-4.9-5.3-6.1c-0.1-0.1-0.2-0.1-0.3,0
					c-0.4,0.2-0.7,0.3-1,0.5c-0.7,0.3-1.4,0.7-2.1,1.2c-0.7,0.5-1.5,1.1-2.2,1.6c-0.2,0.1-0.4,0.3-0.6,0.5s-0.2,0.1-0.3,0l-0.8-0.6
					c-1.3-1.1-2.7-2-4.2-2.8c-0.3-0.1-0.6-0.3-0.9-0.5c-0.1-0.1-0.2-0.1-0.3,0c0,0-0.1,0.1-0.1,0.1c-0.4,0.2-0.8,0.4-1.1,0.7
					c-0.6,0.4-1.2,1-1.8,1.5c-0.7,0.7-1.2,1.5-1.7,2.4c-0.7,1.5-1.1,3.1-1.1,4.8c0,0.5,0,1,0.1,1.5c0,0.5,0.1,0.9,0.2,1.4
					c0.2,0.9,0.5,1.8,1,2.6c0.4,0.7,0.9,1.5,1.3,2.1h3.1c-0.1-0.2-0.1-0.4-0.2-0.5c-0.4-1.1-0.7-2.1-1-3.2c-0.1-0.6-0.3-1.3-0.4-1.9
					c-0.1-0.4-0.1-0.7-0.1-1.1c0-0.2,0-0.5,0-0.7c0-0.4,0.1-0.8,0.1-1.2l0.2-1.2c0.2-0.6,0.5-1.2,1-1.6c0.6-0.5,1.3-0.8,2-0.9
					c0.5-0.1,1.1,0.1,1.5,0.4c0.3,0.3,0.6,0.6,0.7,1c0.3,0.5,0.4,1.1,0.5,1.7c0.2,0.8,0.3,1.6,0.3,2.4v1.7c0,0.6,0,1.2-0.1,1.8
					c0,1.1,0,2.1-0.1,3.2c0,0.1,0,0.1,0.1,0.1h4.2c0.1,0,0.1,0,0.1-0.1v-0.1c-0.1-0.3-0.1-2.2-0.1-2.5C37,98.8,37,98.2,37,97.5v-2.3
					c0-0.7,0.1-1.5,0.2-2.2c0.1-0.5,0.2-1,0.4-1.5c0.2-0.5,0.5-0.9,0.8-1.3c0.4-0.4,0.9-0.6,1.5-0.6c0.3,0,0.6,0.1,0.9,0.1
					c0.7,0.2,1.3,0.6,1.7,1.2c0.4,0.6,0.7,1.2,0.7,1.9c0.1,0.5,0.1,1.1,0.1,1.6v0.7c0,0.5-0.1,1-0.2,1.5c-0.2,1-0.4,1.9-0.7,2.8
					c-0.3,0.9-0.6,1.8-0.9,2.7h3.1c0.4-0.6,0.8-1.3,1.1-1.9c0.6-0.9,0.9-1.9,1.1-2.9c0.2-0.8,0.2-1.6,0.3-2.4
					C47.3,94.3,47.2,93.7,47.1,93.1z"/>
				<path class="st9" d="M86,84.9h4.7c0.4,0,0.7,0,1.1,0.1c0.4,0,0.8,0,1.2,0.1c0.9,0.2,1.8,0.5,2.6,0.9c0.8,0.5,1.5,1,2.1,1.8
					c0.6,0.7,1.1,1.6,1.4,2.5c0.3,1,0.5,2,0.5,3.1c0,1-0.1,2-0.5,2.9c-0.3,0.9-0.8,1.7-1.3,2.4c-0.5,0.7-1.2,1.4-2,1.8
					c-0.7,0.5-1.6,0.9-2.4,1.1c-0.4,0.1-0.8,0.2-1.2,0.2c-0.5,0-0.9,0.1-1.4,0.1h-4.7L86,84.9L86,84.9z M90.6,100.4
					c0.4,0,0.9,0,1.3-0.1c0.4,0,0.8-0.1,1.1-0.2c0.7-0.2,1.3-0.5,1.9-0.9c0.6-0.4,1.1-0.9,1.5-1.5c0.4-0.6,0.8-1.3,1-2
					c0.2-0.8,0.4-1.6,0.3-2.4c0-0.9-0.1-1.7-0.4-2.5c-0.2-0.7-0.6-1.4-1-2c-0.4-0.6-1-1.1-1.6-1.5c-0.6-0.4-1.3-0.7-2-0.9
					c-0.4-0.1-0.7-0.1-1.1-0.1c-0.4,0-0.8-0.1-1.1-0.1h-3v14L90.6,100.4L90.6,100.4z"/>
				<polygon class="st9" points="106.8,84.2 114.2,101.8 112.3,101.8 106.8,88.4 101.2,101.8 99.3,101.8 				"/>
				<polygon class="st9" points="117.1,86.4 112.7,86.4 112.7,84.8 123.3,84.8 123.3,86.4 118.9,86.4 118.9,101.8 117.2,101.8 
					117.2,86.4 				"/>
				<polygon class="st9" points="128.6,84.2 136,101.8 134.1,101.8 128.6,88.4 123,101.8 121.2,101.8 				"/>
			</g>
		</g>
	</g>
	<g>
		<g>
			<g>
				<g>
					<g>
						<g>
							<polygon class="st10" points="95.6,133.4 108.1,133.4 108.1,130.2 98.8,130.2 98.8,123.7 108.1,123.7 108.1,120.5 
								98.8,120.5 98.8,115.6 108.2,115.6 108.2,112.4 95.6,112.4 							"/>
							<path class="st10" d="M120.9,121.9c1.2-1,1.8-2.3,1.8-4c0-1.7-0.6-3.1-1.8-4.1c-1.2-0.9-2.9-1.4-5.1-1.4h-4.5v21h6.1
								c2.1,0,3.8-0.6,5.1-1.8c1.3-1.2,2-2.7,2-4.5c0-1.3-0.4-2.4-1.1-3.4C122.7,123,121.9,122.3,120.9,121.9z M119.4,117.9
								c0,1-0.3,1.7-1,2.1c-0.7,0.5-1.9,0.7-3.5,0.7h-0.5v-5.1h1.7C119.1,115.6,119.4,116.9,119.4,117.9z M121,127.3
								c0,0.5-0.2,1-0.5,1.5c-0.3,0.5-0.8,0.9-1.4,1.1c-0.6,0.2-1.6,0.4-2.9,0.4h-1.8v-6.4h0.5c1.7,0,2.8,0.1,3.4,0.2
								c0.6,0.2,1.1,0.4,1.5,0.7c0.4,0.3,0.7,0.7,0.9,1.1C120.9,126.3,121,126.7,121,127.3z"/>
							<path class="st10" d="M137.5,124.4c-0.7-1-1.9-2.1-3.4-3.2c-1.5-1.1-2.4-1.9-2.8-2.3c-0.4-0.4-0.5-0.9-0.5-1.5
								c0-0.5,0.2-1,0.5-1.3c0.4-0.4,0.8-0.5,1.4-0.5c0.6,0,1.1,0.1,1.5,0.4c0.4,0.3,1,0.9,1.7,1.8l0.2,0.3l2.4-1.9l-0.2-0.3
								c-0.8-1.1-1.6-2-2.5-2.6c-0.9-0.6-1.9-0.9-3.1-0.9c-1.5,0-2.8,0.5-3.7,1.4c-1,1-1.4,2.1-1.4,3.5c0,0.6,0.1,1.3,0.4,1.9
								c0.2,0.6,0.6,1.3,1.2,1.8c0.5,0.5,1.4,1.3,2.8,2.3c1.3,1,2.2,1.8,2.7,2.5c0.5,0.6,0.7,1.3,0.7,1.9c0,0.7-0.3,1.2-0.8,1.7
								c-0.6,0.5-1.3,0.8-2.1,0.8c-1.3,0-2.4-1-3.5-3l-0.2-0.4l-2.6,1.5l0.2,0.3c1.5,3,3.7,4.5,6.4,4.5c1.6,0,2.9-0.6,4.1-1.7
								c1.2-1.1,1.8-2.5,1.8-4C138.7,126.6,138.3,125.5,137.5,124.4z"/>
							<path class="st10" d="M89.8,118.6c-0.9-0.6-2-0.9-3.1-0.9c-1.8,0-3.3,0.7-4.7,1.9v-1.9l-3,0v15.7h3v-5.8
								c0-1.9,0.1-3.1,0.2-3.7c0.2-0.6,0.4-1.1,0.8-1.7c0.4-0.5,0.9-0.9,1.5-1.2c1.1-0.6,2.4-0.5,3.2-0.2c0.4,0.2,0.7,0.4,1,0.8
								c0.3,0.4,0.5,0.8,0.6,1.3c0.1,0.5,0.2,1.6,0.2,3.2v7.3h3v-7.9c0-2.1-0.2-3.5-0.7-4.6C91.4,120,90.8,119.1,89.8,118.6z"/>
							<path class="st10" d="M35.9,113.8c-1.6-0.9-3.4-1.4-5.4-1.4c-1.9,0-3.6,0.5-5.2,1.4c-1.6,0.9-2.9,2.2-3.8,3.8
								c-0.9,1.6-1.4,3.4-1.4,5.3c0,1.9,0.5,3.7,1.4,5.3c0.9,1.6,2.2,2.9,3.9,3.8c1.6,0.9,3.4,1.4,5.3,1.4c1.9,0,3.7-0.5,5.3-1.4
								c1.6-0.9,2.9-2.2,3.8-3.8c0.9-1.6,1.4-3.4,1.4-5.3c0-1.9-0.5-3.7-1.4-5.3C38.8,116,37.5,114.7,35.9,113.8z M38,122.9
								c0,2.1-0.7,3.9-2.2,5.3c-1.4,1.4-3.2,2.1-5.3,2.1c-2,0-3.7-0.7-5.2-2.2c-1.4-1.4-2.2-3.2-2.2-5.3c0-2.1,0.7-3.9,2.1-5.3
								c1.4-1.5,3.1-2.2,5.2-2.2c2,0,3.8,0.7,5.2,2.2C37.3,119,38,120.8,38,122.9z"/>
							<path class="st10" d="M51.5,117.7c-1.8,0-3.4,0.6-4.8,1.9v-1.9h-2.9V138h2.9v-6.5c1.4,1.3,3.1,2,4.9,2c2.1,0,3.9-0.8,5.4-2.3
								c1.5-1.5,2.2-3.4,2.2-5.6c0-2.2-0.8-4-2.3-5.6C55.5,118.5,53.6,117.7,51.5,117.7z M48,122c0.9-1,2.1-1.4,3.5-1.4
								s2.5,0.5,3.5,1.5c1,1,1.4,2.2,1.4,3.6c0,1.4-0.5,2.6-1.5,3.6c-1,1-2.1,1.5-3.4,1.5c-1.4,0-2.5-0.5-3.5-1.4
								c-1-1-1.4-2.1-1.4-3.6C46.6,124.2,47,123,48,122z"/>
							<path class="st10" d="M76.7,125.9c-0.1-2.5-0.8-4.5-2.3-6c-1.5-1.5-3.3-2.2-5.4-2.2c-2.2,0-4,0.8-5.5,2.3
								c-1.5,1.5-2.2,3.4-2.2,5.6c0,2.1,0.7,4,2.2,5.5c1.5,1.5,3.3,2.3,5.5,2.3c1.6,0,3-0.4,4.2-1.1c1.2-0.8,2.2-1.9,3-3.5
								c-1.1,0-2.3,0-3.4,0c-0.3,0.4-0.8,0.9-1.7,1.3c-0.2,0.1-1.1,0.5-2.3,0.5c-1.2,0-2.3-0.4-3.1-1.3c-0.8-0.8-1.3-1.8-1.4-3.1
								h12.3L76.7,125.9z M64.8,123.6c0.8-2,2.2-3,4.3-3c1.1,0,2.1,0.3,2.9,0.9c0.7,0.5,1.2,1.2,1.5,2.1H64.8z"/>
						</g>
					</g>
				</g>
			</g>
			<g>
				<g>
					<g id="Artboard_4_">
						<g class="st11">
							<path class="st10" d="M89.6,142.7h1.8c1.1,0,1.8,0,2.1,0.1c0.3,0.1,0.6,0.2,0.9,0.4c0.3,0.2,0.5,0.5,0.6,0.8
								c0.2,0.3,0.2,0.7,0.2,1.1c0,0.6-0.2,1.1-0.5,1.5c-0.3,0.4-0.8,0.7-1.3,0.8c-0.5,0.1-1.3,0.2-2.4,0.2h-0.6v4.2h-0.9V142.7z
								 M90.5,143.6v3.1H92c0.9,0,1.5-0.1,1.8-0.4c0.3-0.3,0.5-0.7,0.5-1.1c0-1-0.7-1.5-2.2-1.5H90.5z"/>
							<path class="st10" d="M96.8,142.5h0.9v9.3h-0.9V142.5z"/>
							<path class="st10" d="M106.2,145.1v6.7h-0.9v-1.2c-0.8,0.9-1.7,1.4-2.6,1.4c-1,0-1.8-0.4-2.5-1.1c-0.7-0.7-1-1.5-1-2.5
								c0-1,0.3-1.8,1-2.5c0.7-0.7,1.5-1,2.5-1c1.1,0,2,0.5,2.7,1.4v-1.2H106.2z M105.4,148.5c0-0.8-0.3-1.4-0.8-1.9
								c-0.5-0.5-1.1-0.8-1.9-0.8c-0.7,0-1.4,0.3-1.9,0.8c-0.5,0.5-0.8,1.2-0.8,1.9c0,0.7,0.3,1.4,0.8,1.9c0.5,0.5,1.2,0.8,1.9,0.8
								c0.7,0,1.4-0.3,1.9-0.8C105.1,150,105.4,149.3,105.4,148.5z"/>
							<path class="st10" d="M109.8,150.8c0,0.2,0,0.4,0.1,0.4c0.1,0,0.2,0.1,0.5,0.1h0.5v0.7c-0.4,0.1-0.6,0.1-0.8,0.1
								c-0.4,0-0.7-0.1-0.8-0.3c-0.2-0.2-0.3-0.5-0.3-0.9v-5.1h-1.2v-0.7h1.2v-2.6h0.9v2.6h1.4v0.7h-1.4V150.8z"/>
							<path class="st10" d="M115.2,142.7v0.9c-0.3-0.1-0.6-0.2-0.9-0.2c-0.3,0-0.4,0.1-0.5,0.2c-0.1,0.2-0.1,0.4-0.1,0.8v0.7h1.4
								v0.7h-1.4v6h-0.9v-6H112v-0.7h0.9v-0.9c0-0.6,0.1-1,0.3-1.3c0.2-0.3,0.6-0.4,1-0.4C114.5,142.5,114.8,142.6,115.2,142.7z"/>
							<path class="st10" d="M116.1,148.5c0-1,0.3-1.8,1-2.5c0.7-0.7,1.5-1.1,2.5-1.1c1,0,1.8,0.4,2.5,1.1c0.7,0.7,1,1.5,1,2.5
								c0,1-0.3,1.8-1,2.5c-0.7,0.7-1.5,1-2.5,1c-1,0-1.8-0.3-2.5-1C116.5,150.3,116.1,149.5,116.1,148.5z M122.3,148.5
								c0-0.7-0.3-1.4-0.8-1.9c-0.5-0.5-1.1-0.8-1.9-0.8c-0.7,0-1.3,0.3-1.8,0.8c-0.5,0.5-0.8,1.2-0.8,1.9c0,0.8,0.2,1.4,0.7,1.9
								c0.5,0.5,1.1,0.8,1.9,0.8c0.7,0,1.4-0.3,1.9-0.8C122,149.9,122.3,149.3,122.3,148.5z"/>
							<path class="st10" d="M124.4,145.1h0.9v1c0.2-0.4,0.5-0.7,0.7-0.9c0.2-0.2,0.5-0.3,0.7-0.3c0.3,0,0.6,0.1,0.8,0.2l-0.5,0.7
								c-0.1-0.1-0.3-0.1-0.4-0.1c-0.3,0-0.5,0.1-0.7,0.4c-0.2,0.3-0.4,0.6-0.5,1c-0.1,0.4-0.2,1.2-0.2,2.3v2.3h-0.9V145.1z"/>
							<path class="st10" d="M128.6,145.1h0.9v1.2c0.6-0.9,1.4-1.3,2.3-1.3c0.5,0,0.9,0.1,1.3,0.4c0.4,0.3,0.7,0.7,0.8,1.2
								c0.3-0.5,0.6-0.9,1.1-1.2c0.4-0.3,0.9-0.4,1.5-0.4s1.1,0.2,1.5,0.7c0.5,0.4,0.7,1.3,0.7,2.6v3.7h-0.9v-3.7
								c0-0.6,0-1.1-0.1-1.4c-0.1-0.3-0.2-0.5-0.5-0.7c-0.3-0.2-0.6-0.3-1-0.3c-0.4,0-0.8,0.1-1.2,0.4c-0.4,0.3-0.6,0.6-0.7,1.1
								c-0.1,0.4-0.2,1.1-0.2,2v2.6h-0.9v-3.5c0-0.7,0-1.2-0.1-1.5c-0.1-0.3-0.2-0.6-0.5-0.8c-0.3-0.2-0.6-0.3-1-0.3
								s-0.7,0.1-1.1,0.3c-0.3,0.2-0.6,0.5-0.8,0.9c-0.2,0.4-0.3,1-0.3,2v2.9h-0.9V145.1z"/>
						</g>
					</g>
				</g>
				<g>
					<polygon class="st10" points="19.9,151.7 25.3,151.7 25.3,150.5 21.1,150.5 21.1,147.4 25.3,147.4 25.3,146.2 21.1,146.2 
						21.1,143.7 25.3,143.7 25.3,142.6 19.9,142.6 					"/>
					<polygon class="st10" points="32.6,149.1 27,142.6 26.6,142.6 26.6,151.7 27.8,151.7 27.8,145.3 33.4,151.7 33.4,151.7 
						33.8,151.7 33.8,142.6 32.6,142.6 					"/>
					<polygon class="st10" points="34.8,143.7 36.8,143.7 36.8,151.7 38,151.7 38,143.7 40,143.7 40,142.6 34.8,142.6 					"/>
					<polygon class="st10" points="40.9,151.7 46.3,151.7 46.3,150.5 42.1,150.5 42.1,147.4 46.3,147.4 46.3,146.2 42.1,146.2 
						42.1,143.7 46.3,143.7 46.3,142.6 40.9,142.6 					"/>
					<path class="st10" d="M52.6,147c0.6-0.5,0.9-1.1,0.9-1.9c0-0.4-0.1-0.8-0.2-1.1c-0.2-0.3-0.4-0.6-0.7-0.8
						c-0.3-0.2-0.6-0.4-1-0.5c-0.4-0.1-1.1-0.1-2.1-0.1h-1.9v9.2h1.2v-4.1H49l3.1,4.1l0,0.1h1.5l-3.2-4.1
						C51.4,147.6,52.1,147.4,52.6,147z M50.1,146.4h-1.4v-2.7h1.4c0.7,0,1.2,0.1,1.6,0.3c0.3,0.2,0.5,0.5,0.5,1s-0.2,0.8-0.5,1
						C51.4,146.3,50.9,146.4,50.1,146.4C50.2,146.4,50.2,146.4,50.1,146.4z"/>
					<path class="st10" d="M59.9,143.2c-0.3-0.2-0.6-0.4-0.9-0.5c-0.3-0.1-1-0.1-2.1-0.1H55v9.2h1.2v-4.1h0.5c1,0,1.8-0.1,2.3-0.2
						c0.5-0.1,1-0.4,1.3-0.8c0.4-0.4,0.5-0.9,0.5-1.6c0-0.4-0.1-0.8-0.2-1.1C60.5,143.6,60.2,143.4,59.9,143.2z M59.6,145.1
						c0,0.4-0.1,0.7-0.4,1c-0.3,0.3-0.8,0.4-1.7,0.4h-1.3v-2.7h1.4C59,143.7,59.6,144.2,59.6,145.1z"/>
					<path class="st10" d="M67.3,147c0.6-0.5,0.9-1.1,0.9-1.9c0-0.4-0.1-0.8-0.2-1.1c-0.2-0.3-0.4-0.6-0.7-0.8
						c-0.3-0.2-0.6-0.4-1-0.5c-0.4-0.1-1.1-0.1-2.1-0.1h-1.9v9.2h1.2v-4.1h0.3l3.1,4.1l0,0.1h1.5l-3.2-4.1
						C66.2,147.6,66.8,147.4,67.3,147z M64.9,146.4h-1.4v-2.7H65c0.7,0,1.2,0.1,1.6,0.3c0.3,0.2,0.5,0.5,0.5,1s-0.2,0.8-0.5,1
						C66.2,146.3,65.7,146.4,64.9,146.4C65,146.4,65,146.4,64.9,146.4z"/>
					<rect x="69.7" y="142.6" class="st10" width="1.2" height="9.2"/>
					<path class="st10" d="M75.1,146.4c-0.7-0.5-1.1-0.9-1.3-1.1c-0.2-0.2-0.3-0.5-0.3-0.8c0-0.3,0.1-0.5,0.3-0.7
						c0.2-0.2,0.5-0.3,0.8-0.3c0.3,0,0.6,0.1,0.8,0.3c0.2,0.2,0.5,0.4,0.7,0.8l0.1,0.1l1-0.7l-0.1-0.1c-0.3-0.5-0.7-0.9-1.1-1.1
						c-0.4-0.3-0.8-0.4-1.4-0.4c-0.7,0-1.2,0.2-1.6,0.6c-0.4,0.4-0.7,1-0.7,1.6c0,0.3,0.1,0.6,0.2,0.9c0.1,0.3,0.3,0.6,0.5,0.8
						c0.2,0.2,0.6,0.6,1.3,1.1c0.6,0.5,1.1,0.9,1.3,1.2c0.2,0.3,0.4,0.6,0.4,0.9c0,0.4-0.1,0.7-0.4,1c-0.3,0.3-0.6,0.4-1.1,0.4
						c-0.6,0-1.2-0.5-1.7-1.4l-0.1-0.1l-1,0.6l0.1,0.1c0.7,1.3,1.6,2,2.8,2c0.7,0,1.3-0.3,1.8-0.8c0.5-0.5,0.8-1.1,0.8-1.8
						c0-0.5-0.2-1-0.5-1.5C76.3,147.5,75.8,147,75.1,146.4z"/>
					<polygon class="st10" points="84.1,143.7 84.1,142.6 78.7,142.6 78.7,151.7 84.1,151.7 84.1,150.5 79.9,150.5 79.9,147.4 
						84.1,147.4 84.1,146.2 79.9,146.2 79.9,143.7 					"/>
				</g>
			</g>
		</g>
	</g>
</g>
</svg>
