<svg id="Layer_1" data-name="Layer 1" xmlns="http://www.w3.org/2000/svg" viewBox="0 0 407.43 236.3">
  <defs>
    <style>
      .cls-1, .cls-6 {
        fill: none;
      }

      .cls-1 {
        stroke: #afafaf;
        stroke-miterlimit: 10;
        stroke-width: 0.5px;
        stroke-dasharray: 6.04 6.04;
      }

      .cls-2 {
        fill: #f16e22;
      }

      .cls-10, .cls-3 {
        isolation: isolate;
      }

      .cls-3 {
        font-size: 10.29px;
        fill: #fff;
        font-family: Helvetica-Bold, Helvetica;
        font-weight: 700;
      }

      .cls-4 {
        fill: #272b5c;
      }

      .cls-5 {
        fill: #0163ff;
      }

      .cls-6 {
        stroke: #1c2456;
        stroke-width: 0.25px;
      }

      .cls-7 {
        fill: #639;
      }

      .cls-8 {
        fill: #262b3e;
      }

      .cls-9 {
        fill: #1d2356;
      }
    </style>
  </defs>
  <title>moep</title>
  <path class="cls-1" d="M155.13,21.17H380.28c2.07,0,3.74,2.89,3.74,6.46v181c0,3.56-1.67,6.45-3.74,6.45H155.13c-2.06,0-3.74-2.89-3.74-6.45v-181C151.39,24.06,153.07,21.17,155.13,21.17Z"/>
  <rect class="cls-2" x="166.47" y="95.4" width="97.48" height="108.71"/>
  <g>
    <text class="cls-3" transform="translate(187.48 145.54)">OpenEBS</text>
    <text class="cls-3" transform="translate(170.9 157.88)">Enterprise Edition</text>
  </g>
  <rect class="cls-4" x="167.28" y="35.34" width="207.05" height="44.83"/>
  <g>
    <text class="cls-3" transform="translate(247.81 53.53)">Director</text>
    <text class="cls-3" transform="translate(232.37 65.87)">Online/Onprem</text>
  </g>
  <rect class="cls-5" x="277.47" y="95.14" width="97.48" height="108.71"/>
  <g>
    <text class="cls-3" transform="translate(307.35 145.8)">Litmus</text>
    <text class="cls-3" transform="translate(281.91 158.15)">Enterprise Edition</text>
  </g>
  <path class="cls-6" d="M14.56,6.9H391.2c4.61,0,8.34,3.4,8.34,7.59V221.11c0,4.19-3.73,7.58-8.34,7.58H14.56c-4.61,0-8.34-3.39-8.34-7.58V14.49C6.22,10.3,10,6.9,14.56,6.9Z"/>
  <g>
    <g id="Logos">
      <g id="MayaDataLogo-Purple">
        <g id="Group">
          <polygon id="Shape" class="cls-7" points="55.05 84.84 62.33 102.13 60.49 102.13 55.05 88.98 49.63 102.13 47.8 102.13 55.05 84.84"/>
          <path class="cls-7" d="M66.6,94l-1-1.66,3.3-5.14h2Zm-.4.59v7.53H64.41V94.58l-6-9.74h2Z"/>
          <polygon class="cls-7" points="75.94 84.84 83.25 102.13 81.41 102.13 76.02 88.98 70.55 102.13 68.69 102.13 75.94 84.84"/>
          <polygon class="cls-7" points="70.06 84.84 69 86.67 71.27 86.67 72.33 84.84 70.06 84.84"/>
          <path class="cls-7" d="M47.08,93.06A13.3,13.3,0,0,0,46.62,91a10.21,10.21,0,0,0-5.32-6.09.34.34,0,0,0-.34,0c-.4.21-.71.34-1.05.53a15.52,15.52,0,0,0-2.1,1.19c-.72.53-1.45,1.08-2.17,1.6-.19.13-.4.34-.59.47s-.19.12-.34,0l-.79-.61a22.46,22.46,0,0,0-4.21-2.76,5.75,5.75,0,0,1-.93-.46.29.29,0,0,0-.33,0,.38.38,0,0,1-.13.06,8.84,8.84,0,0,0-1.11.67,10.41,10.41,0,0,0-1.77,1.54,10.36,10.36,0,0,0-2.82,7.17,13.22,13.22,0,0,0,.06,1.54,11.36,11.36,0,0,0,.19,1.41,7.17,7.17,0,0,0,1,2.6A19.2,19.2,0,0,0,25.22,102h3.09c-.06-.18-.12-.36-.19-.53a27.73,27.73,0,0,1-1-3.21c-.13-.61-.27-1.29-.4-1.88-.06-.4-.06-.73-.12-1.13a1.94,1.94,0,0,1,0-.68,7.87,7.87,0,0,1,.12-1.19l.19-1.2a3.46,3.46,0,0,1,1-1.6,3.36,3.36,0,0,1,2-.86,2,2,0,0,1,1.51.4,2.14,2.14,0,0,1,.72,1,6.55,6.55,0,0,1,.52,1.68,10.89,10.89,0,0,1,.28,2.42v1.74a17.07,17.07,0,0,1-.07,1.75,28.88,28.88,0,0,1-.12,3.22c0,.12,0,.12.12.12h4.21c.06,0,.06,0,.06-.06v-.08c-.06-.34-.06-2.15-.06-2.49C37,98.79,37,98.21,37,97.53V95.21A13.63,13.63,0,0,1,37.2,93a5.47,5.47,0,0,1,.4-1.54,4.38,4.38,0,0,1,.8-1.28,2,2,0,0,1,1.45-.61,3.74,3.74,0,0,1,.87.13,3.59,3.59,0,0,1,1.7,1.2,3.82,3.82,0,0,1,.72,1.93,14.18,14.18,0,0,1,.12,1.6v.67a5.59,5.59,0,0,1-.19,1.47,24.52,24.52,0,0,1-.65,2.82c-.27.86-.59,1.81-.92,2.67h3.09c.4-.61.8-1.28,1.11-1.87a8.31,8.31,0,0,0,1.12-2.88A15.65,15.65,0,0,0,47.09,95,3.67,3.67,0,0,0,47.08,93.06Z"/>
          <path class="cls-8" d="M86,84.89h4.73a7.07,7.07,0,0,1,1.12.06,6.53,6.53,0,0,1,1.24.13,8.45,8.45,0,0,1,2.57.94,8,8,0,0,1,2.1,1.75,8.14,8.14,0,0,1,1.37,2.48,10.17,10.17,0,0,1,.52,3.09,8.71,8.71,0,0,1-.46,3,9.9,9.9,0,0,1-1.3,2.42,6.38,6.38,0,0,1-2,1.8,8.47,8.47,0,0,1-2.42,1.08,4.36,4.36,0,0,1-1.24.21c-.46,0-.93.06-1.45.06H86.06v-17Zm4.65,15.56a9.5,9.5,0,0,0,1.3-.06,2.72,2.72,0,0,0,1.12-.21A5.87,5.87,0,0,0,95,99.32a6.88,6.88,0,0,0,1.52-1.48,9.12,9.12,0,0,0,1-2,7.25,7.25,0,0,0,.34-2.36,7.85,7.85,0,0,0-.4-2.54,7.35,7.35,0,0,0-1-2,6.43,6.43,0,0,0-3.58-2.34,5.24,5.24,0,0,0-1.11-.12c-.4,0-.78-.07-1.12-.07h-3v14h3Z"/>
          <polygon class="cls-8" points="106.78 84.23 114.17 101.81 112.28 101.81 106.78 88.45 101.22 101.81 99.33 101.81 106.78 84.23"/>
          <polygon class="cls-8" points="117.11 86.37 112.66 86.37 112.66 84.84 123.25 84.84 123.25 86.37 118.89 86.37 118.89 101.81 117.17 101.81 117.17 86.37 117.11 86.37"/>
          <polygon class="cls-8" points="128.59 84.23 136 101.81 134.1 101.81 128.59 88.45 123.05 101.81 121.16 101.81 128.59 84.23"/>
        </g>
      </g>
    </g>
    <g>
      <g>
        <polygon class="cls-9" points="95.57 133.42 108.08 133.42 108.08 130.22 98.79 130.22 98.79 123.69 108.08 123.69 108.08 120.52 98.79 120.52 98.79 115.58 108.16 115.58 108.16 112.39 95.57 112.39 95.57 133.42"/>
        <path class="cls-9" d="M120.85,121.85a5.33,5.33,0,0,0,0-8,8.18,8.18,0,0,0-5.13-1.4h-4.53v21h6.08a7.27,7.27,0,0,0,5.06-1.78,5.86,5.86,0,0,0,2-4.51,5.58,5.58,0,0,0-1.06-3.39A6.1,6.1,0,0,0,120.85,121.85Zm-1.45-4a2.29,2.29,0,0,1-1,2.09,6.85,6.85,0,0,1-3.48.7h-.51v-5.1h1.66C119.05,115.57,119.4,116.89,119.4,117.88Zm1.6,9.38a2.63,2.63,0,0,1-.51,1.5,3,3,0,0,1-1.35,1.12,8.19,8.19,0,0,1-2.92.37h-1.83v-6.36h.48a15.27,15.27,0,0,1,3.43.25,4.26,4.26,0,0,1,1.5.71,3.16,3.16,0,0,1,.9,1.05A3,3,0,0,1,121,127.26Z"/>
        <path class="cls-9" d="M137.54,124.42a15,15,0,0,0-3.42-3.24,20.81,20.81,0,0,1-2.83-2.34,2.16,2.16,0,0,1-.54-1.46,1.69,1.69,0,0,1,.55-1.32,1.9,1.9,0,0,1,1.37-.52,2.59,2.59,0,0,1,1.5.42,7.58,7.58,0,0,1,1.69,1.81l.25.33,2.45-1.91-.23-.32a10.11,10.11,0,0,0-2.47-2.56,5.29,5.29,0,0,0-3.07-.9,5,5,0,0,0-3.72,1.45,4.79,4.79,0,0,0-1.44,3.53,5.54,5.54,0,0,0,.36,1.94,5.64,5.64,0,0,0,1.18,1.81,24,24,0,0,0,2.8,2.35,15.53,15.53,0,0,1,2.74,2.48,3.13,3.13,0,0,1,.73,1.94,2.23,2.23,0,0,1-.84,1.72,3,3,0,0,1-2.07.77c-1.25,0-2.42-1-3.48-3l-.2-.37-2.62,1.51.18.34c1.52,3,3.67,4.51,6.38,4.51a5.77,5.77,0,0,0,4.11-1.68,5.37,5.37,0,0,0,1.77-4A5.62,5.62,0,0,0,137.54,124.42Z"/>
        <path class="cls-9" d="M89.83,118.56a5.63,5.63,0,0,0-3.07-.87,6.7,6.7,0,0,0-4.71,1.93v-1.93H79v15.74h3v-5.8a18.06,18.06,0,0,1,.24-3.73,4.49,4.49,0,0,1,.85-1.67A4.28,4.28,0,0,1,84.6,121a3.93,3.93,0,0,1,3.21-.18,2.28,2.28,0,0,1,1,.76,4,4,0,0,1,.6,1.33,15.32,15.32,0,0,1,.21,3.16v7.35h3v-7.88a11.64,11.64,0,0,0-.67-4.55A5.48,5.48,0,0,0,89.83,118.56Z"/>
        <path class="cls-9" d="M35.9,113.77a10.87,10.87,0,0,0-5.39-1.38,10.37,10.37,0,0,0-5.21,1.39,10.23,10.23,0,0,0-3.82,3.85,10.62,10.62,0,0,0-1.39,5.3,10.49,10.49,0,0,0,1.39,5.28A10.16,10.16,0,0,0,25.34,132a10.82,10.82,0,0,0,5.32,1.38A10.49,10.49,0,0,0,36,132a10.06,10.06,0,0,0,3.83-3.83,10.66,10.66,0,0,0,0-10.58A10.14,10.14,0,0,0,35.9,113.77ZM38,122.94a7.18,7.18,0,0,1-2.15,5.32,7.3,7.3,0,0,1-5.28,2.11,7.09,7.09,0,0,1-5.18-2.16,7.25,7.25,0,0,1-2.17-5.3,7.39,7.39,0,0,1,2.11-5.32,6.91,6.91,0,0,1,5.24-2.18,7.2,7.2,0,0,1,5.25,2.17A7.28,7.28,0,0,1,38,122.94Z"/>
        <path class="cls-9" d="M51.46,117.69a6.79,6.79,0,0,0-4.78,1.9v-1.9H43.76V138h2.92v-6.51a7.17,7.17,0,0,0,4.92,2A7.27,7.27,0,0,0,57,131.11a7.78,7.78,0,0,0,2.24-5.56A7.66,7.66,0,0,0,57,120,7.44,7.44,0,0,0,51.46,117.69ZM48,122a4.55,4.55,0,0,1,3.45-1.45A4.59,4.59,0,0,1,54.89,122a4.92,4.92,0,0,1,1.43,3.57,4.82,4.82,0,0,1-1.45,3.56,4.56,4.56,0,0,1-3.41,1.48A4.71,4.71,0,0,1,48,129.19,5.26,5.26,0,0,1,48,122Z"/>
        <path class="cls-9" d="M76.72,125.87a8.41,8.41,0,0,0-2.27-6A7.35,7.35,0,0,0,69,117.68,7.26,7.26,0,0,0,63.56,120a8.14,8.14,0,0,0,0,11.1,7.35,7.35,0,0,0,5.54,2.31,7.5,7.5,0,0,0,4.18-1.14,9.29,9.29,0,0,0,3-3.47H72.89a5,5,0,0,1-1.65,1.32,5.53,5.53,0,0,1-2.3.49,4.31,4.31,0,0,1-3.15-1.29,4.87,4.87,0,0,1-1.41-3.05H76.73Zm-12-2.29a4.24,4.24,0,0,1,4.26-3,4.82,4.82,0,0,1,2.92.93,4,4,0,0,1,1.48,2.09Z"/>
      </g>
      <g>
        <g id="Artboard">
          <g class="cls-10">
            <path class="cls-9" d="M89.57,142.73h1.81a11.34,11.34,0,0,1,2.11.12,2.5,2.5,0,0,1,.91.45,2.15,2.15,0,0,1,.64.79,2.46,2.46,0,0,1,.23,1.06,2.29,2.29,0,0,1-.51,1.54,2.21,2.21,0,0,1-1.28.75,12.23,12.23,0,0,1-2.35.16h-.65v4.24h-.91Zm.91.88v3.11H92a2.51,2.51,0,0,0,1.84-.45,1.57,1.57,0,0,0,.46-1.12c0-1-.74-1.54-2.23-1.54Z"/>
            <path class="cls-9" d="M96.82,142.5h.86v9.34h-.86Z"/>
            <path class="cls-9" d="M106.2,145.1v6.74h-.85v-1.15a3.39,3.39,0,0,1-2.64,1.38A3.34,3.34,0,0,1,100.2,151a3.53,3.53,0,0,1-1-2.53,3.45,3.45,0,0,1,1-2.51,3.31,3.31,0,0,1,2.46-1.05,3.18,3.18,0,0,1,2.68,1.41V145.1Zm-.8,3.4a2.71,2.71,0,0,0-.77-1.95,2.55,2.55,0,0,0-1.9-.79,2.51,2.51,0,0,0-1.9.82,2.78,2.78,0,0,0,0,3.87,2.61,2.61,0,0,0,3.77,0A2.65,2.65,0,0,0,105.4,148.5Z"/>
            <path class="cls-9" d="M109.79,150.78c0,.22,0,.36.09.4a1,1,0,0,0,.46.06h.52V152a5.35,5.35,0,0,1-.84.09,1.11,1.11,0,0,1-.84-.28,1.28,1.28,0,0,1-.26-.88v-5.07h-1.2v-.74h1.2v-2.6h.87v2.6h1.38v.74h-1.38Z"/>
            <path class="cls-9" d="M115.24,142.67v.85a2.28,2.28,0,0,0-.88-.21c-.26,0-.43.08-.5.25a1.94,1.94,0,0,0-.12.8v.74h1.41v.74h-1.41v6h-.87v-6H112v-.74h.88v-.88a2.07,2.07,0,0,1,.33-1.3,1.22,1.22,0,0,1,1-.42A4,4,0,0,1,115.24,142.67Z"/>
            <path class="cls-9" d="M116.13,148.52a3.5,3.5,0,0,1,1-2.54,3.45,3.45,0,0,1,5,0,3.64,3.64,0,0,1,0,5,3.49,3.49,0,0,1-5,0A3.46,3.46,0,0,1,116.13,148.52Zm6.15,0a2.69,2.69,0,0,0-.79-1.94,2.5,2.5,0,0,0-3.7,0,2.78,2.78,0,0,0-.77,1.95,2.7,2.7,0,0,0,.75,1.92,2.48,2.48,0,0,0,1.86.78,2.51,2.51,0,0,0,1.88-.79A2.67,2.67,0,0,0,122.28,148.53Z"/>
            <path class="cls-9" d="M124.43,145.1h.89v1a3.63,3.63,0,0,1,.69-.88,1.15,1.15,0,0,1,.75-.28,1.77,1.77,0,0,1,.84.23l-.46.74a.74.74,0,0,0-.39-.12,1,1,0,0,0-.75.41,2.58,2.58,0,0,0-.51,1,10.74,10.74,0,0,0-.17,2.33v2.28h-.89Z"/>
            <path class="cls-9" d="M128.59,145.1h.86v1.17a2.69,2.69,0,0,1,2.31-1.35,2.19,2.19,0,0,1,1.34.43,2,2,0,0,1,.79,1.2,3.18,3.18,0,0,1,1.07-1.21,2.68,2.68,0,0,1,1.49-.42,2.13,2.13,0,0,1,1.53.66,3.56,3.56,0,0,1,.69,2.58v3.68h-.89v-3.68a6.43,6.43,0,0,0-.11-1.37,1.4,1.4,0,0,0-.5-.73,1.58,1.58,0,0,0-1-.3,1.87,1.87,0,0,0-1.17.42,2,2,0,0,0-.75,1.06,6.86,6.86,0,0,0-.21,2v2.64h-.85v-3.45a7.66,7.66,0,0,0-.11-1.54,1.45,1.45,0,0,0-.51-.78,1.48,1.48,0,0,0-1-.31,1.87,1.87,0,0,0-1.08.34,2.28,2.28,0,0,0-.78.92,4.64,4.64,0,0,0-.29,2v2.86h-.86Z"/>
          </g>
        </g>
        <g>
          <polygon class="cls-9" points="19.95 151.72 25.3 151.72 25.3 150.54 21.14 150.54 21.14 147.37 25.3 147.37 25.3 146.2 21.14 146.2 21.14 143.75 25.33 143.75 25.33 142.57 19.95 142.57 19.95 151.72"/>
          <polygon class="cls-9" points="32.63 149.09 26.98 142.57 26.56 142.57 26.56 151.72 27.77 151.72 27.77 145.28 33.35 151.67 33.4 151.72 33.81 151.72 33.81 142.57 32.63 142.57 32.63 149.09"/>
          <polygon class="cls-9" points="34.79 143.73 36.78 143.73 36.78 151.72 37.98 151.72 37.98 143.73 39.95 143.73 39.95 142.57 34.79 142.57 34.79 143.73"/>
          <polygon class="cls-9" points="40.93 151.72 46.28 151.72 46.28 150.54 42.12 150.54 42.12 147.37 46.28 147.37 46.28 146.2 42.12 146.2 42.12 143.75 46.31 143.75 46.31 142.57 40.93 142.57 40.93 151.72"/>
          <path class="cls-9" d="M52.57,147a2.32,2.32,0,0,0,.86-1.9,2.5,2.5,0,0,0-.24-1.1,2.22,2.22,0,0,0-.66-.82,2.53,2.53,0,0,0-1-.45,10.43,10.43,0,0,0-2.06-.13H47.58v9.15h1.19V147.6h.28l3.13,4.06,0,.06h1.48l-3.19-4.11A3.28,3.28,0,0,0,52.57,147Zm-2.43-.53H48.77v-2.71h1.41a2.83,2.83,0,0,1,1.55.33,1.13,1.13,0,0,1,.47,1,1.15,1.15,0,0,1-.47,1,2.73,2.73,0,0,1-1.51.33Z"/>
          <path class="cls-9" d="M59.94,143.15a2.79,2.79,0,0,0-.93-.46,11.22,11.22,0,0,0-2.09-.12H55v9.15H56.2V147.6h.48a12.89,12.89,0,0,0,2.31-.15,2.35,2.35,0,0,0,1.33-.79,2.38,2.38,0,0,0,.53-1.59,2.42,2.42,0,0,0-.24-1.09A2.26,2.26,0,0,0,59.94,143.15Zm-.32,1.92a1.37,1.37,0,0,1-.4,1,2.37,2.37,0,0,1-1.68.39H56.2v-2.72h1.41C59,143.73,59.62,144.17,59.62,145.07Z"/>
          <path class="cls-9" d="M67.35,147a2.32,2.32,0,0,0,.86-1.9A2.5,2.5,0,0,0,68,144a2.3,2.3,0,0,0-.65-.82,2.64,2.64,0,0,0-1-.45,10.43,10.43,0,0,0-2.06-.13H62.36v9.15h1.19V147.6h.28L67,151.66l.05.06h1.48l-3.19-4.11A3.28,3.28,0,0,0,67.35,147Zm-2.43-.53H63.55v-2.71H65a2.87,2.87,0,0,1,1.56.33,1.36,1.36,0,0,1,0,2.05,2.73,2.73,0,0,1-1.51.33Z"/>
          <rect class="cls-9" x="69.67" y="142.57" width="1.19" height="9.16"/>
          <path class="cls-9" d="M75.05,146.43a9.51,9.51,0,0,1-1.34-1.13,1.12,1.12,0,0,1-.26-.76.9.9,0,0,1,.29-.7,1.06,1.06,0,0,1,.77-.28,1.24,1.24,0,0,1,.81.27,4.61,4.61,0,0,1,.69.75l.09.13,1-.74-.08-.12a4.49,4.49,0,0,0-1.09-1.12,2.46,2.46,0,0,0-1.35-.39,2.23,2.23,0,0,0-1.64.65,2.09,2.09,0,0,0-.66,1.57,2.42,2.42,0,0,0,.16.86,2.77,2.77,0,0,0,.51.8,12.62,12.62,0,0,0,1.29,1.08,7.64,7.64,0,0,1,1.33,1.19,1.58,1.58,0,0,1,.37.93,1.22,1.22,0,0,1-.43,1,1.49,1.49,0,0,1-1.06.4c-.63,0-1.21-.47-1.7-1.38l-.08-.14-1,.6.07.13a3.12,3.12,0,0,0,2.85,1.95,2.57,2.57,0,0,0,1.83-.75,2.38,2.38,0,0,0,.8-1.78,2.52,2.52,0,0,0-.52-1.49A7.29,7.29,0,0,0,75.05,146.43Z"/>
          <polygon class="cls-9" points="84.11 143.75 84.11 142.57 78.73 142.57 78.73 151.72 84.07 151.72 84.07 150.54 79.92 150.54 79.92 147.37 84.07 147.37 84.07 146.2 79.92 146.2 79.92 143.75 84.11 143.75"/>
        </g>
      </g>
    </g>
  </g>
</svg>
